<?xml version="1.0" encoding="UTF-8"?>
<svg width="446px" height="100px" viewBox="0 0 446 100" version="1.1" xmlns="http://www.w3.org/2000/svg" xmlns:xlink="http://www.w3.org/1999/xlink">
    <!-- Generator: Sketch 54.1 (76490) - https://sketchapp.com -->
    <title>Combined Shape</title>
    <desc>Created with Sketch.</desc>
    <g id="Page-1" stroke="none" stroke-width="1" fill="none" fill-rule="evenodd">
        <g id="A0" fill="#A7A7A7">
            <path d="M445.995979,48 C445.998656,48.1790168 446,48.3583572 446,48.5380117 C446,67.9971674 430.237432,83.7719298 410.793318,83.7719298 C405.401366,83.7719298 400.292518,82.5588801 395.724392,80.3905987 C387.792753,92.2168613 374.307547,100 359.005896,100 C339.971433,100 323.74775,87.9563136 317.528415,71.0680756 C313.522365,73.2938471 308.911388,74.5614035 304.004586,74.5614035 C288.688024,74.5614035 276.253901,62.2106697 276.103572,46.9178301 C271.008082,52.4108186 263.730214,55.8479532 255.65018,55.8479532 C246.592262,55.8479532 238.542423,51.528518 233.445089,44.8355793 C230.771648,61.683099 216.19044,74.5614035 198.603669,74.5614035 C197.801522,74.5614035 197.005629,74.5346122 196.216832,74.481875 C188.192104,89.6590315 172.253454,100 153.901408,100 C137.042816,100 122.220807,91.2736045 113.699357,78.0880874 C108.180974,81.6831289 101.592993,83.7719298 94.5175237,83.7719298 C84.5890483,83.7719298 75.6204573,79.6589965 69.2201245,73.0427479 C61.8701111,79.7100227 52.1167081,83.7719298 41.4153292,83.7719298 C18.5422745,83.7719298 0,65.2153109 0,42.3245614 C0,42.2162768 0.000414931875,42.1080891 0.00124329123,41.9999999 L0,0 L446,0 L446,42 L446,48 Z" id="Combined-Shape"></path>
        </g>
    </g>
</svg>