<?xml version="1.0" encoding="UTF-8"?>
<svg width="2081px" height="1287px" viewBox="0 0 2081 1287" version="1.1" xmlns="http://www.w3.org/2000/svg" xmlns:xlink="http://www.w3.org/1999/xlink">
    <!-- Generator: Sketch 54.1 (76490) - https://sketchapp.com -->
    <title>skyline</title>
    <desc>Created with Sketch.</desc>
    <defs>
        <path d="M193.5,276 L193.5,577.5" id="path-1"></path>
        <filter x="-200.0%" y="-0.7%" width="500.0%" height="101.2%" filterUnits="objectBoundingBox" id="filter-2">
            <feGaussianBlur stdDeviation="1.5" in="SourceAlpha" result="shadowBlurInner1"></feGaussianBlur>
            <feOffset dx="0" dy="1" in="shadowBlurInner1" result="shadowOffsetInner1"></feOffset>
            <feComposite in="shadowOffsetInner1" in2="SourceAlpha" operator="arithmetic" k2="-1" k3="1" result="shadowInnerInner1"></feComposite>
            <feColorMatrix values="0 0 0 0 0   0 0 0 0 0   0 0 0 0 0  0 0 0 0.5 0" type="matrix" in="shadowInnerInner1"></feColorMatrix>
        </filter>
        <linearGradient x1="50%" y1="0.318899133%" x2="50%" y2="100%" id="linearGradient-3">
            <stop stop-color="#F89E0F" offset="0.0290329392%"></stop>
            <stop stop-color="#FED32E" offset="100%"></stop>
        </linearGradient>
    </defs>
    <g id="Page-1" stroke="none" stroke-width="1" fill="none" fill-rule="evenodd">
        <g id="A0" transform="translate(0.000000, -14.000000)">
            <g id="skyline" transform="translate(0.000000, 14.000000)">
                <g id="Buildings">
                    <polygon id="Building15" stroke="#3A3A3A" fill="#373737" points="1481 1286 1481 557.866182 1570.00395 452.517316 1583.53226 434 1710 564.574454 1710 1286"></polygon>
                    <g id="Building14" transform="translate(1676.000000, 708.000000)">
                        <polyline id="Combined-Shape" fill="#676767" points="23 261.491149 23 578 278.252265 578 405 579 405 411.862669 331.937432 398.43361 331 248.087448"></polyline>
                        <polygon id="Path" stroke="#575757" fill="#676767" stroke-linejoin="bevel" points="331 248.087448 185.521951 241 24 261.631494 194.146341 275"></polygon>
                        <g id="Scaffold" transform="translate(18.000000, 20.000000)" stroke="#575757">
                            <path d="M181,193.5 L4.5,202.5" id="Support2"></path>
                            <path d="M178.651774,100.5 L1.5,107.5" id="Support1"></path>
                            <polyline points="181 250 176.52055 0 0 21.8361632 5 241.491149"></polyline>
                        </g>
                        <g id="GoldMedalFlour" transform="translate(0.614380, 0.366995)" stroke="#FF073A" stroke-width="4">
                            <polyline id="G" points="51.3856201 18.6330054 22.3856201 18.6330054 22.3856201 67.6330054 51.3856201 67.6330054 51.3856201 43.1330054 36.8856201 43.1330054"></polyline>
                            <polygon id="O" points="72.3856201 11.6330054 72.3856201 63.6330054 98.3856201 63.6330054 98.3856201 11.6330054"></polygon>
                            <polyline id="L" points="119.38562 5.63300535 119.38562 54.6330054 140.38562 54.6330054"></polyline>
                            <polygon id="D" points="154.38562 0.633005351 154.38562 52.6330054 177.623523 52.6330054 181.38562 44.3438896 181.38562 8.39630436 175.428681 0.633005351"></polygon>
                            <polyline id="M" points="0.385620117 151.633005 0.385620117 109.633005 15.4157127 144.049762 29.3856201 109.633005 29.3856201 151.633005"></polyline>
                            <g id="E" transform="translate(48.385620, 100.633005)">
                                <polyline id="Path-8" points="30 0 0 0 0 22 26.0113269 22"></polyline>
                                <polyline id="Path-9" points="0 23 0 45 30 45"></polyline>
                            </g>
                            <polygon id="D" points="93.3856201 96.6330054 93.3856201 143.633005 116.035203 143.633005 121.38562 138.016067 121.38562 103.629707 116.035203 96.6330054"></polygon>
                            <g id="A" transform="translate(137.385620, 91.633005)">
                                <polyline id="Path-11" points="0 52 13.7830403 0 23.4637005 0 40 52"></polyline>
                                <path d="M34.7946429,34.5 L4,34.5" id="Path-12"></path>
                            </g>
                            <path d="M189.78562,139.483835 L189.78562,86.6330054 L189.78562,139.483835 L187.88562,139.483835 L189.78562,139.483835 Z M189.78562,139.483835 L189.78562,141.112986 L189.78562,139.483835 L218.025827,139.483835 L189.78562,139.483835 Z" id="L"></path>
                            <g id="F" transform="translate(9.385620, 200.633005)">
                                <polyline id="Path-15" points="28.6682052 -2.70687645 0.583994655 -2.70687645 0.583994655 22.1148423 0.583994655 45.0362836"></polyline>
                                <path d="M28.6682052,14.3442521 L0.583994655,14.3442521" id="Path-16"></path>
                            </g>
                            <polyline id="L" points="52.3856201 193.633005 52.3856201 242.633005 73.3856201 242.633005"></polyline>
                            <polygon id="O" points="84.3856201 192.633005 84.3856201 241.633005 105.38562 241.633005 105.38562 192.633005"></polygon>
                            <polyline id="U" points="131.38562 190.633005 131.38562 237.633005 159.38562 237.633005 159.38562 190.633005"></polyline>
                            <g id="R" transform="translate(178.385620, 185.633005)">
                                <path d="M1.67687988,1 L1.67687988,54" id="Path-20"></path>
                                <polyline id="Path-21" points="0.614379883 3.16531398 29.6143799 3.16531398 29.6143799 30.165314 0.614379883 30.165314"></polyline>
                                <path d="M22.4893799,30.165314 L31,54" id="Path-22"></path>
                            </g>
                        </g>
                        <g id="Path-34">
                            <use fill="black" fill-opacity="1" filter="url(#filter-2)" xlink:href="#path-1"></use>
                            <use stroke="#575757" stroke-width="1" xlink:href="#path-1"></use>
                        </g>
                    </g>
                    <polygon id="Building13" stroke="#4A4A4A" fill="#474747" points="1182 216 1411 216 1411 243.896484 1373.19496 243.896484 1373.19496 266.773438 1411 266.773438 1411 1286 1182 1286 1182 266.773438 1220.51297 266.773438 1220.51297 243.896484 1182 243.896484"></polygon>
                    <path d="M20,1285 L34.7237286,173.599813 L196.925509,131.972973 L296.472731,131.972973 L382,150.627627 L382,1285 L20,1285 Z M194.038462,131.972973 L194.038462,0 L194.038462,131.972973 Z M291.5,131.972973 L291.5,0 L291.5,131.972973 Z" id="Building12" stroke="#3A3A3A" stroke-width="3" fill="#373737"></path>
                    <g id="Group" transform="translate(529.000000, 167.000000)">
                        <polygon id="Building11" stroke="#3A3A3A" fill="#373737" points="14.8146831 1119 0 225.897516 49.1747884 225.897516 49.1747884 62.788794 83.3392616 62.788794 83.3392616 7.76462228e-15 166.322828 0 166.322828 34.4058172 198.75329 34.4058172 198.75329 76.647705 221.63335 76.647705 221.63335 225.897516 250 225.897516 250 1119"></polygon>
                        <polygon id="Path-5" fill="url(#linearGradient-3)" points="51.1855469 225.222656 51.1855469 64.3823661 84.7983398 64.3823661 84.7983398 2.71289062 164.080078 2.71289062 164.080078 37.7046411 197.132324 37.7046411 197.132324 78.6982841 219.037109 78.6982841 219.037109 225.712891"></polygon>
                        <g id="Windows" transform="translate(55.000000, 1.000000)" stroke="#373737" stroke-width="2">
                            <path d="M0.5,224.222656 L0.5,64" id="Path-27"></path>
                            <path d="M5.5,224.222656 L5.5,64" id="Path-27"></path>
                            <path d="M10.5,224.222656 L10.5,64" id="Path-27"></path>
                            <path d="M15.5,224.222656 L15.5,64" id="Path-27"></path>
                            <path d="M20.5,224.222656 L20.5,64" id="Path-27"></path>
                            <path d="M25.5,224.222656 L25.5,64" id="Path-27"></path>
                            <path d="M30.5,224.222656 L30.5,0.133789063" id="Path-27"></path>
                            <path d="M35.5,224.222656 L35.5,0.133789063" id="Path-27"></path>
                            <path d="M40.5,224.222656 L40.5,0.133789063" id="Path-6"></path>
                            <path d="M45.5,224.222656 L45.5,0.133789063" id="Path-27"></path>
                            <path d="M50.5,224.222656 L50.5,0.133789063" id="Path-27"></path>
                            <path d="M55.5,224.222656 L55.5,0.133789063" id="Path-27"></path>
                            <path d="M60.5,224.222656 L60.5,0.133789063" id="Path-27"></path>
                            <path d="M65.5,224.222656 L65.5,0.133789063" id="Path-27"></path>
                            <path d="M70.5,224.222656 L70.5,0.133789063" id="Path-27"></path>
                            <path d="M75.5,224.222656 L75.5,0.133789063" id="Path-27"></path>
                            <path d="M80.5,224.222656 L80.5,0.133789063" id="Path-27"></path>
                            <path d="M85.5,224.222656 L85.5,0.133789063" id="Path-6"></path>
                            <path d="M90.5,224.222656 L90.5,0.133789063" id="Path-27"></path>
                            <path d="M95.5,224.222656 L95.5,0.133789063" id="Path-27"></path>
                            <path d="M100.5,224.222656 L100.5,0.133789063" id="Path-27"></path>
                            <path d="M105.5,224.222656 L105.5,0.133789063" id="Path-27"></path>
                            <path d="M110.5,224.222656 L110.5,35.6738281" id="Path-27"></path>
                            <path d="M115.5,224.222656 L115.5,35.6738281" id="Path-27"></path>
                            <path d="M120.5,224.222656 L120.5,35.6738281" id="Path-27"></path>
                            <path d="M125.5,224.222656 L125.5,35.6738281" id="Path-27"></path>
                            <path d="M130.5,224.222656 L130.5,35.6738281" id="Path-6"></path>
                            <path d="M135.5,224.222656 L135.5,35.6738281" id="Path-27"></path>
                            <path d="M140.5,224.222656 L140.5,35.6738281" id="Path-27"></path>
                            <path d="M145.5,224.222656 L145.5,77.5" id="Path-27"></path>
                            <path d="M150.5,224.222656 L150.5,77.5" id="Path-27"></path>
                            <path d="M155.5,224.222656 L155.5,77.5" id="Path-27"></path>
                            <path d="M160.5,224.222656 L160.5,77.5" id="Path-27"></path>
                        </g>
                    </g>
                    <g id="Building10" transform="translate(326.000000, 283.000000)">
                        <path d="M0,1002 L0,354.449426 L78.072107,229.625 L167,354.449426 L167,1002 L0,1002 Z M78.0208333,229.625 L78.0208333,0 L78.0208333,229.625 Z" stroke="#4A4A4A" stroke-width="3" fill="#474747"></path>
                        <g id="Foshay" transform="translate(22.000000, 366.000000)" stroke="#FFFAE0" stroke-linecap="round" stroke-linejoin="round" stroke-width="4">
                            <g id="F">
                                <polyline id="Path-3" points="11.8108259 0 3.55271368e-15 0 3.55271368e-15 11.8918913 3.55271368e-15 26.9478451"></polyline>
                                <path d="M0,11.8918913 L8.03962054,11.8918913" id="Path-4"></path>
                            </g>
                            <polygon id="O" points="22 0 22 27 34 27 34 0"></polygon>
                            <polyline id="S" points="57 3.03664359 57 0 47 0 47 11.9149069 57 11.9149069 57 27 47 27 47 23.5017634"></polyline>
                            <g id="H" transform="translate(71.000000, 0.000000)">
                                <polyline id="Path-7" points="0.15 7.10542736e-15 0.15 11.9469437 0.15 26.9478451"></polyline>
                                <path d="M11.7222656,0 L11.7222656,26.9478451" id="Path-10"></path>
                                <path d="M11.7222656,11.8918913 L0.3,11.8918913" id="Path-17"></path>
                            </g>
                            <g id="A" transform="translate(93.000000, 0.000000)">
                                <polyline id="Path-18" points="0 26.9478451 7.64588648 0 14.9414063 26.9478451"></polyline>
                                <path d="M13.3169244,21.522579 L1.55691964,21.522579" id="Path-19"></path>
                            </g>
                            <g id="Y" transform="translate(116.000000, 0.000000)">
                                <polyline id="Path-23" points="0 3.55271368e-14 6.49902344 15.8817394 6.49902344 26.9478451"></polyline>
                                <path d="M6.49902344,15.8817394 L14.7497559,-3.55271368e-15" id="Path-25"></path>
                            </g>
                        </g>
                    </g>
                    <polygon id="Building9" stroke="#4A4A4A" fill="#474747" points="737 1286 737 528.287304 785 528.287304 785 445.113281 808.224201 445.113281 808.224201 405.695312 831.872932 405.695312 831.872932 258 975.684476 258 975.684476 342.042969 1010.60604 342.042969 1010.60604 393.457031 1045.49173 393.457031 1045.49173 454.945991 1092 454.945991 1092 1286"></polygon>
                    <path d="M447.998388,1281.4994 C447.998388,1275.4986 444.998925,1099.4272 439,753.285218 L515.793857,753.285218 L515.793857,709 L689.118268,709 L689.118268,753.285218 L731.750766,753.285218 L731.750766,807.173771 L766,807.173771 L766,1281.4994 C553.998925,1287.5002 447.998388,1287.5002 447.998388,1281.4994 Z" id="Building8" stroke="#505050" fill="#505050"></path>
                    <polygon id="Building7" stroke="#5A5A5A" fill="#575757" points="695 825.081457 753.211031 825.081457 753.211031 786 828.960111 786 828.960111 805.540728 895.751866 805.540728 895.751866 825.081457 981.512758 825.081457 981.512758 951.773834 1007 951.773834 1007 1286 695 1286"></polygon>
                    <polygon id="Building6" stroke="#5A5A5A" fill="#575757" points="1091 813 1091 1286 1227.79781 1286 1320 1286 1320 827.595847 1227.79781 813"></polygon>
                    <polygon id="Building5" stroke="#6A6A6A" fill="#676767" points="1328 813 1328 1286 1464.79781 1286 1557 1286 1557 827.595847 1464.79781 813"></polygon>
                    <polygon id="Building4" stroke="#505050" fill="#505050" points="151.863711 709 68.8426495 709 68.8426495 747.315946 8.43012942e-15 760.386229 0 1286 209 1286 209 709"></polygon>
                    <polygon id="Building3" stroke="#7A7A7A" fill="#777777" points="939 1285 939 1081.27266 1053.07086 1081.27266 1053.07086 1111.23289 1087.04942 1111.23289 1087.04942 1081.27266 1142.63251 1081.27266 1142.63251 1111.23289 1175.80576 1111.23289 1175.80576 973 1283.06758 973 1283.06758 1111.23289 1314.95233 1111.23289 1314.95233 1129 1380.21026 1129 1380.21026 1081.27266 1487 1081.27266 1487 1285"></polygon>
                    <polygon id="Building2" stroke="#6A6A6A" fill="#676767" points="181 1286 181 821.828917 213.01831 821.828917 213.01831 798 328 798 328 1286"></polygon>
                    <polygon id="Building1" stroke="#7A7A7A" fill="#777777" points="271 1286 271 1127.83526 334.087961 1127.83526 334.087961 1032.316 363.274294 1032.316 363.274294 1011.24381 417.990067 1011.24381 417.990067 1036.76797 438.597775 1036.76797 438.597775 1070.15444 460.286821 1070.15444 460.286821 994.273139 508.331058 994.273139 508.331058 967 560.969348 967 560.969348 1070.15444 618.57197 1070.15444 618.57197 1110.4168 687.948083 1110.4168 687.948083 1154.95914 751 1154.95914 751 1286"></polygon>
                </g>
                <path d="" id="Path-26" stroke="#979797"></path>
                <g id="Grainbelt" transform="translate(595.000000, 955.000000)">
                    <g id="Group-5" transform="translate(140.000000, 101.000000)" stroke="#E9863B" stroke-width="2">
                        <polyline id="Path-66" transform="translate(5.561507, 9.453518) rotate(-1.000000) translate(-5.561507, -9.453518) " points="10.7687422 18.1880124 6.57055441 8.8364828 9.19482686 8.83707752 10.3076387 7.34367145 10.3064179 2.02673817 7.82375506 0.335704296 0.354271666 0.334011554 0.457450276 18.5730252"></polyline>
                        <path d="M0.619847764,8.60066569 L6.80747909,9.28064205" id="Path-67" transform="translate(3.713663, 8.940654) rotate(-1.000000) translate(-3.713663, -8.940654) "></path>
                    </g>
                    <path d="M1.15561292,28.2733953 C0.281196261,122.659264 -0.0969873089,171.213031 0.0210622134,173.934697 C0.198136497,178.017196 3.68723462,187.259991 8.27000853,192.297851 C12.8527824,197.335711 23.0440021,202.724739 26.485588,203.027249 C29.9271739,203.329759 196.089108,209.045121 198.283292,208.999731 C200.477477,208.954341 210.085469,206.271029 216.546792,199.095568 C220.85434,194.311926 223.338743,188.09363 224,180.440678 L224,41.9478401 C222.790075,34.2639231 220.305672,28.1543521 216.546792,23.6191272 C210.90847,16.8162899 203.664713,13.9664831 200.477477,13.5670698 C197.290241,13.1676565 32.3567698,0 28.0709893,0 C23.7852088,4.897555e-16 16.1348323,1.07735378 9.13796344,8.42725058 C4.47338422,13.3271818 1.81260071,19.9425633 1.15561292,28.2733953 Z" id="Path-24" stroke="#9DF257" stroke-width="2"></path>
                    <ellipse id="Oval" stroke="#E1E246" stroke-width="2" cx="113.5" cy="83" rx="85.5" ry="70"></ellipse>
                    <path d="M109.775667,23.1555297 L8.03007152,91.0553664 L122.745816,144.8483 L218.060751,77.8212019 L109.775667,23.1555297 Z" id="Rectangle" stroke="#D90044" stroke-width="2"></path>
                    <polyline id="Path-31" stroke="#E1E246" stroke-width="2" points="199 90.3798504 205.788086 104.5 201.354736 109.654712 208 121.398426 201.354736 132.48122 203.812018 144.135054 189.805036 154.910312 191.089386 165.541286 175.768342 170.980058 169.649783 183.337024 154.378032 184.601713 144.15725 194.317532 125.784016 190.966479 109.282612 197 95.2614489 189.956489 82.3369132 190.966479 72.9149671 180.601042 57.77962 179.379029 52.3099889 164.314531 39.7802176 157.233398 40.9277344 143.689925 29.8561402 134.323242 32.203125 120.970534 28 115.429199 29.8561402 106.271484 32.203125 103.663086"></polyline>
                    <polyline id="Path-50" stroke="#E9863B" stroke-width="2" transform="translate(33.414980, 78.372893) rotate(-1.000000) translate(-33.414980, -78.372893) " points="38.9118084 71.1565881 38.9567703 68.5807245 36.33551 66.471604 29.2857922 66.4717139 27.2565107 68.3461058 27.5737799 87.3883239 30.3281485 90.2741829 37.0780166 90.0691002 39.5734494 88.1036144 39.3043781 78.2703117 34.2497837 78.3903211"></polyline>
                    <ellipse id="Oval" stroke="#9DF257" cx="111.5" cy="41.5" rx="9.5" ry="10.5"></ellipse>
                    <g id="Group-7" transform="translate(73.000000, 64.000000)" stroke="#E9863B" stroke-width="2">
                        <path d="M0,23.8587054 L3.38764391,0 C7.0573805,8.79060592 9.34502776,14.2705103 10.2505857,16.4397131 C11.1561436,18.6089159 12.0617015,20.7781186 12.9672595,22.9473214" id="Path-53" stroke-linejoin="round"></path>
                        <path d="M10.2505857,16.4397131 L1.04502467,16.4397131" id="Path-54"></path>
                    </g>
                    <path d="M94,61 L95,86" id="Path-55" stroke="#E9863B" stroke-width="2"></path>
                    <polyline id="Path-56" stroke="#E9863B" stroke-width="2" stroke-linejoin="round" points="107.357909 85 105 61.243278 118 83.6890855 116.944271 60"></polyline>
                    <g id="Group-8" transform="translate(137.000000, 61.000000)" stroke="#E9863B" stroke-width="2">
                        <polygon id="Path-57" points="7.10542736e-15 1.42306675e-14 1.48912584 22.4881879 10.2131216 22.6739035 12.792586 19.9762789 12.5712759 13.6521212 10.2131216 11.0544972 11.4296413 8.46851663 11.1378207 1.45954805 8.34648174 1.42108547e-14"></polygon>
                        <path d="M0.845782306,11.4669692 L10.2131216,11.0544972" id="Path-60"></path>
                    </g>
                    <polyline id="Path-58" stroke="#979797" stroke-width="2" points="168.7976 60 159 60.2728102 160.428095 83 171 83"></polyline>
                    <path d="M160,71 L168,71" id="Path-59" stroke="#979797" stroke-width="2"></path>
                    <g id="Group-9" transform="translate(159.000000, 60.000000)" stroke="#E9863B" stroke-width="2">
                        <polyline id="Path-58" points="9.69502528 0 0 0.272380772 1.41314338 22.9637943 11.8743681 22.9637943"></polyline>
                        <path d="M0.674172794,11.0405565 L9.18853401,11.0405565" id="Path-59"></path>
                    </g>
                    <g id="Group-4" transform="translate(87.649385, 111.284374) rotate(2.000000) translate(-87.649385, -111.284374) translate(82.149385, 101.784374)" stroke="#E9863B" stroke-width="2">
                        <polygon id="Path-57" points="0.0229818686 0.739417644 1.32436013 18.4787904 9.23831161 18.4787904 10.3773732 17.313446 10.1260399 11.0049264 8.40681152 9.38523117 9.95125824 7.49305364 9.41187387 1.82383173 6.643278 0.169699447"></polygon>
                        <path d="M0.713590007,9.51505646 L8.65195673,9.16960191" id="Path-60"></path>
                    </g>
                    <polyline id="Path-61" stroke="#E9863B" stroke-width="2" points="179 58 180.338183 82 190 81.6647107"></polyline>
                    <g id="Group-10" transform="translate(190.000000, 59.000000)" stroke="#E9863B" stroke-width="2">
                        <path d="M0,0.411104911 L12.8553764,0.0285714286" id="Path-62"></path>
                        <path d="M6.85341005,0.21983817 L8.6763883,23.7106585" id="Path-63"></path>
                    </g>
                    <g id="Group-11" transform="translate(103.000000, 102.000000)" stroke="#E9863B" stroke-width="2">
                        <path d="M9.34778226,1.42108547e-14 C9.34778226,1.42108547e-14 6.23185484,0.0570436511 1.77635684e-15,0.171130953 L0.541614163,16.7575833 L10.9012412,16.7575833" id="Path-64"></path>
                        <path d="M0.323998236,8.1013931 C0.940948172,8.1013931 3.82181805,8.08189755 8.96660786,8.04290647" id="Path-65"></path>
                    </g>
                    <g id="Group-12" transform="translate(122.000000, 102.000000)" stroke="#E9863B" stroke-width="2">
                        <path d="M9.34778226,1.42108547e-14 C9.34778226,1.42108547e-14 6.23185484,0.0570436511 0,0.171130953 L0.541614163,16.7575833 L10.9012412,16.7575833" id="Path-64"></path>
                        <path d="M0.323998236,8.1013931 C0.940948172,8.1013931 3.82181805,8.08189755 8.96660786,8.04290647" id="Path-65"></path>
                    </g>
                    <g id="Group-6" transform="translate(49.000000, 65.000000)" stroke="#E9863B" stroke-width="2">
                        <polyline id="Path-66" transform="translate(7.359283, 12.519522) rotate(-3.000000) translate(-7.359283, -12.519522) " points="13.6413405 24.0739213 8.91418812 12.6551561 12.2460893 12.6497257 13.6628163 10.4885514 13.6749646 2.80367996 10.5272129 0.365480495 1.04360144 0.380937186 1.70247824 24.6735627"></polyline>
                        <path d="M1.03488427,12.4102861 L9.22959312,13.1010953" id="Path-67" transform="translate(5.132239, 12.755691) rotate(-3.000000) translate(-5.132239, -12.755691) "></path>
                    </g>
                    <polyline id="Path-51" stroke="#9DF257" stroke-linejoin="round" points="106 50 106.512557 31.6090393 110.957021 40.5050683 114.134202 31 118 48.2363201"></polyline>
                    <path d="M56.5,205.232422 L54.1322387,331" id="Path-52" stroke="#979797" stroke-width="4"></path>
                    <path d="M170.874368,209 L170.874368,330" id="Path-68" stroke="#979797" stroke-width="4"></path>
                </g>
            </g>
        </g>
    </g>
</svg>